<?xml version="1.0" encoding="UTF-8" standalone="no"?>
<svg
   xmlns:dc="http://purl.org/dc/elements/1.1/"
   xmlns:cc="http://creativecommons.org/ns#"
   xmlns:rdf="http://www.w3.org/1999/02/22-rdf-syntax-ns#"
   xmlns:svg="http://www.w3.org/2000/svg"
   xmlns="http://www.w3.org/2000/svg"
   viewBox="0 0 770.6189 548.02582"
   height="548.02582"
   width="770.6189"
   xml:space="preserve"
   id="svg2"
   version="1.1"><metadata
     id="metadata8"><rdf:RDF><cc:Work
         rdf:about=""><dc:format>image/svg+xml</dc:format><dc:type
           rdf:resource="http://purl.org/dc/dcmitype/StillImage" /></cc:Work></rdf:RDF></metadata><defs
     id="defs6" /><g
     transform="matrix(1.3333333,0,0,-1.3333333,0,548.0258)"
     id="g10"><g
       id="g12"><g
         transform="matrix(1,0,0,-1,0,411.01935)"
         id="g14"><path
           id="path16"
           style="fill:none;stroke:#000000;stroke-width:0.75708801;stroke-linecap:butt;stroke-linejoin:miter;stroke-miterlimit:4;stroke-dasharray:none;stroke-opacity:1"
           d="M 327.277,410.648 V 0.559 h 240 v 208.832 h -240 z" /></g><g
         transform="matrix(1,0,0,-1,0,411.01935)"
         id="g18"><path
           id="path20"
           style="fill:#ffffff;fill-opacity:1;fill-rule:nonzero;stroke:#000000;stroke-width:1.91562402;stroke-linecap:butt;stroke-linejoin:miter;stroke-miterlimit:4;stroke-dasharray:none;stroke-opacity:1"
           d="m 340.438,169.105 c 0.644,7.161 -5.141,13.446 -12.926,14.04 -7.785,0.593 -14.621,-4.727 -15.266,-11.887 -0.648,-7.16 5.137,-13.445 12.922,-14.043 7.785,-0.594 14.621,4.726 15.27,11.887" /></g><g
         transform="matrix(1,0,0,-1,0,411.01935)"
         id="g22"><path
           id="path24"
           style="fill:none;stroke:#000000;stroke-width:1.01368403;stroke-linecap:butt;stroke-linejoin:miter;stroke-miterlimit:4;stroke-dasharray:none;stroke-opacity:1"
           d="m 317.035,176.254 h 19.633 l -10.492,-17.359 -9.188,17.488" /></g><g
         transform="matrix(1,0,0,-1,0,411.01935)"
         id="g26"><path
           id="path28"
           style="fill:none;stroke:#000000;stroke-width:0.65193099;stroke-linecap:butt;stroke-linejoin:miter;stroke-miterlimit:4;stroke-dasharray:none;stroke-opacity:1"
           d="m 403.871,46.391 10.606,21.797" /></g><g
         transform="matrix(1,0,0,-1,0,411.01935)"
         id="g30"><path
           id="path32"
           style="fill:none;stroke:#000000;stroke-width:0.65193099;stroke-linecap:butt;stroke-linejoin:miter;stroke-miterlimit:4;stroke-dasharray:none;stroke-opacity:1"
           d="M 457.734,47.859 468.336,69.66" /></g><g
         transform="matrix(1,0,0,-1,0,411.01935)"
         id="g34"><path
           id="path36"
           style="fill:none;stroke:#000000;stroke-width:0.65193099;stroke-linecap:butt;stroke-linejoin:miter;stroke-miterlimit:4;stroke-dasharray:none;stroke-opacity:1"
           d="m 512.133,48.578 10.605,21.797" /></g><g
         transform="matrix(1,0,0,-1,0,411.01935)"
         id="g38"><path
           id="path40"
           style="fill:none;stroke:#000000;stroke-width:0.65193099;stroke-linecap:butt;stroke-linejoin:miter;stroke-miterlimit:4;stroke-dasharray:none;stroke-opacity:1"
           d="m 562.305,48.578 10.601,21.797" /></g><g
         transform="matrix(1,0,0,-1,0,411.01935)"
         id="g42"><path
           id="path44"
           style="fill:none;stroke:#000000;stroke-width:0.75;stroke-linecap:butt;stroke-linejoin:miter;stroke-miterlimit:4;stroke-dasharray:none;stroke-opacity:1"
           d="M 409.027,0 V 209.102" /></g><g
         transform="matrix(1,0,0,-1,0,411.01935)"
         id="g46"><path
           id="path48"
           style="fill:none;stroke:#000000;stroke-width:0.75;stroke-linecap:butt;stroke-linejoin:miter;stroke-miterlimit:4;stroke-dasharray:none;stroke-opacity:1"
           d="M 463.543,0.027 V 209.129" /></g><g
         transform="matrix(1,0,0,-1,0,411.01935)"
         id="g50"><path
           id="path52"
           style="fill:none;stroke:#000000;stroke-width:0.75;stroke-linecap:butt;stroke-linejoin:miter;stroke-miterlimit:4;stroke-dasharray:none;stroke-opacity:1"
           d="M 518.121,0.664 V 209.766" /></g><g
         transform="matrix(1,0,0,-1,0,411.01935)"
         id="g54"><path
           id="path56"
           style="fill:none;stroke:#000000;stroke-width:0.75;stroke-linecap:butt;stroke-linejoin:miter;stroke-miterlimit:4;stroke-dasharray:none;stroke-opacity:1"
           d="m 558.039,179.672 19.02,19.016 h -19.555 l 19.422,-19.418 z" /></g><g
         transform="matrix(1,0,0,-1,0,411.01935)"
         id="g58"><path
           id="path60"
           style="fill:none;stroke:#000000;stroke-width:0.75;stroke-linecap:butt;stroke-linejoin:miter;stroke-miterlimit:4;stroke-dasharray:none;stroke-opacity:1"
           d="m 508.621,179.48 19.02,19.016 h -19.555 l 19.418,-19.418 z" /></g><g
         transform="matrix(1,0,0,-1,0,411.01935)"
         id="g62"><path
           id="path64"
           style="fill:none;stroke:#000000;stroke-width:0.75;stroke-linecap:butt;stroke-linejoin:miter;stroke-miterlimit:4;stroke-dasharray:none;stroke-opacity:1"
           d="m 454.516,179.48 19.015,19.016 H 453.98 l 19.418,-19.418 z" /></g><g
         transform="matrix(1,0,0,-1,0,411.01935)"
         id="g66"><path
           id="path68"
           style="fill:none;stroke:#000000;stroke-width:0.75;stroke-linecap:butt;stroke-linejoin:miter;stroke-miterlimit:4;stroke-dasharray:none;stroke-opacity:1"
           d="m 400.406,179.48 19.02,19.016 h -19.555 l 19.422,-19.418 z" /></g><g
         transform="matrix(1,0,0,-1,0,411.01935)"
         id="g70"><path
           id="path72"
           style="fill:none;stroke:#000000;stroke-width:0.75118101;stroke-linecap:butt;stroke-linejoin:miter;stroke-miterlimit:4;stroke-dasharray:none;stroke-opacity:1"
           d="m 385.16,221.98 h 42.047" /></g><g
         transform="matrix(1,0,0,-1,0,411.01935)"
         id="g74"><path
           id="path76"
           style="fill:#000000;fill-opacity:1;fill-rule:evenodd;stroke:#000000;stroke-width:0.80125999;stroke-linecap:butt;stroke-linejoin:miter;stroke-miterlimit:4;stroke-dasharray:none;stroke-opacity:1"
           d="m 392.672,221.98 3.004,-3.003 -10.516,3.003 10.516,3.004 z" /></g><g
         transform="matrix(1,0,0,-1,0,411.01935)"
         id="g78"><path
           id="path80"
           style="fill:none;stroke:#000000;stroke-width:0.75118101;stroke-linecap:butt;stroke-linejoin:miter;stroke-miterlimit:4;stroke-dasharray:none;stroke-opacity:1"
           d="m 305.203,250.582 v 42.047" /></g><g
         transform="matrix(0,-1,-1,0,0,411.01935)"
         id="g82"><path
           id="path84"
           style="fill:#000000;fill-opacity:1;fill-rule:evenodd;stroke:#000000;stroke-width:0.80125999;stroke-linecap:butt;stroke-linejoin:miter;stroke-miterlimit:4;stroke-dasharray:none;stroke-opacity:1"
           d="m 258.094,-305.203 3.004,-3.004 -10.516,3.004 10.516,3.004 z" /></g><g
         transform="matrix(1,0,0,-1,0,411.01935)"
         id="g86"><path
           id="path88"
           style="fill:none;stroke:#000000;stroke-width:0.75118101;stroke-linecap:butt;stroke-linejoin:miter;stroke-miterlimit:4;stroke-dasharray:none;stroke-opacity:1"
           d="m 306.793,73.664 v 42.047" /></g><g
         transform="matrix(0,-1,-1,0,0,411.01935)"
         id="g90"><path
           id="path92"
           style="fill:#000000;fill-opacity:1;fill-rule:evenodd;stroke:#000000;stroke-width:0.80125999;stroke-linecap:butt;stroke-linejoin:miter;stroke-miterlimit:4;stroke-dasharray:none;stroke-opacity:1"
           d="m 81.176,-306.793 3.004,-3.004 -10.516,3.004 10.516,3.008 z" /></g><g
         transform="matrix(1,0,0,-1,0,411.01935)"
         id="g94"><path
           id="path96"
           style="fill:none;stroke:#000000;stroke-width:0.75118101;stroke-linecap:butt;stroke-linejoin:miter;stroke-miterlimit:4;stroke-dasharray:none;stroke-opacity:1"
           d="M 398.934,148 V 105.953" /></g><g
         transform="matrix(0,1,1,0,0,411.01935)"
         id="g98"><path
           id="path100"
           style="fill:#000000;fill-opacity:1;fill-rule:evenodd;stroke:#000000;stroke-width:0.80125999;stroke-linecap:butt;stroke-linejoin:miter;stroke-miterlimit:4;stroke-dasharray:none;stroke-opacity:1"
           d="m -140.488,398.934 3.004,-3.004 -10.516,3.004 10.516,3.004 z" /></g><g
         transform="matrix(1,0,0,-1,0,411.01935)"
         id="g102"><path
           id="path104"
           style="fill:none;stroke:#000000;stroke-width:0.75118101;stroke-linecap:butt;stroke-linejoin:miter;stroke-miterlimit:4;stroke-dasharray:none;stroke-opacity:1"
           d="M 452.504,150.145 V 108.098" /></g><g
         transform="matrix(0,1,1,0,0,411.01935)"
         id="g106"><path
           id="path108"
           style="fill:#000000;fill-opacity:1;fill-rule:evenodd;stroke:#000000;stroke-width:0.80125999;stroke-linecap:butt;stroke-linejoin:miter;stroke-miterlimit:4;stroke-dasharray:none;stroke-opacity:1"
           d="m -142.633,452.504 3.004,-3.004 -10.516,3.004 10.516,3.008 z" /></g><g
         transform="matrix(1,0,0,-1,0,411.01935)"
         id="g110"><path
           id="path112"
           style="fill:none;stroke:#000000;stroke-width:0.75118101;stroke-linecap:butt;stroke-linejoin:miter;stroke-miterlimit:4;stroke-dasharray:none;stroke-opacity:1"
           d="M 505.543,151.215 V 109.168" /></g><g
         transform="matrix(0,1,1,0,0,411.01935)"
         id="g114"><path
           id="path116"
           style="fill:#000000;fill-opacity:1;fill-rule:evenodd;stroke:#000000;stroke-width:0.80125999;stroke-linecap:butt;stroke-linejoin:miter;stroke-miterlimit:4;stroke-dasharray:none;stroke-opacity:1"
           d="m -143.703,505.543 3.004,-3.008 -10.516,3.008 10.516,3.004 z" /></g><g
         transform="matrix(1,0,0,-1,0,411.01935)"
         id="g118"><path
           id="path120"
           style="fill:none;stroke:#000000;stroke-width:0.75118101;stroke-linecap:butt;stroke-linejoin:miter;stroke-miterlimit:4;stroke-dasharray:none;stroke-opacity:1"
           d="M 555.898,151.75 V 109.703" /></g><g
         transform="matrix(0,1,1,0,0,411.01935)"
         id="g122"><path
           id="path124"
           style="fill:#000000;fill-opacity:1;fill-rule:evenodd;stroke:#000000;stroke-width:0.80125999;stroke-linecap:butt;stroke-linejoin:miter;stroke-miterlimit:4;stroke-dasharray:none;stroke-opacity:1"
           d="m -144.238,555.898 3.004,-3.003 -10.516,3.003 10.516,3.004 z" /></g><path
         id="path126"
         style="fill:#030000;fill-opacity:1;fill-rule:nonzero;stroke:none"
         d="m 332.633,201.629 c 0.258,-2.731 -2.059,-5.129 -5.176,-5.356 -3.113,-0.226 -5.852,1.805 -6.109,4.535 -0.262,2.731 2.054,5.129 5.172,5.356 3.117,0.226 5.855,-1.801 6.113,-4.531" /><path
         id="path128"
         style="fill:#030000;fill-opacity:1;fill-rule:nonzero;stroke:none"
         d="m 15.789,371.531 c 0.262,-2.73 -2.059,-5.129 -5.176,-5.355 -3.113,-0.227 -5.851,1.804 -6.109,4.535 -0.262,2.73 2.055,5.125 5.172,5.355 3.117,0.227 5.855,-1.804 6.113,-4.535" /><text
         id="text132"
         style="font-variant:normal;font-weight:normal;font-size:29.99999809px;font-family:Verdana;-inkscape-font-specification:Verdana;writing-mode:lr-tb;fill:#000000;fill-opacity:1;fill-rule:nonzero;stroke:none"
         transform="matrix(1,0,0,-1,30.62807,361.63233)"><tspan
           id="tspan130"
           y="0"
           x="0 25.259998 33.48 51.209999 59.279999 78.239998 96.93 107.46 126.42 145.37999 153.50999">Mixing unit</tspan></text>
<g
         transform="matrix(1,0,0,-1,0,411.01935)"
         id="g134"><path
           id="path136"
           style="fill:none;stroke:#000000;stroke-width:0.75;stroke-linecap:butt;stroke-linejoin:miter;stroke-miterlimit:4;stroke-dasharray:none;stroke-opacity:1"
           d="M 1.441,75.922 20.457,94.941 H 0.906 L 20.324,75.52 Z" /></g><text
         id="text140"
         style="font-variant:normal;font-weight:normal;font-size:29.99999809px;font-family:Verdana;-inkscape-font-specification:Verdana;writing-mode:lr-tb;fill:#000000;fill-opacity:1;fill-rule:nonzero;stroke:none"
         transform="matrix(1,0,0,-1,32.304285,315.77518)"><tspan
           id="tspan138"
           y="0"
           x="0 23.609999 42.57 56.189999 79.799995 90.329994 100.85999 111.39 128.55 146.54999 154.76999 172.23">On/Off valve</tspan></text>
<g
         transform="matrix(1,0,0,-1,0,411.01935)"
         id="g142"><path
           id="path144"
           style="fill:#ffffff;fill-opacity:1;fill-rule:nonzero;stroke:#000000;stroke-width:1.91562402;stroke-linecap:butt;stroke-linejoin:miter;stroke-miterlimit:4;stroke-dasharray:none;stroke-opacity:1"
           d="m 29.715,135.074 c 0.644,7.16 -5.141,13.446 -12.926,14.039 -7.785,0.598 -14.621,-4.726 -15.269,-11.883 -0.645,-7.16 5.14,-13.449 12.925,-14.042 7.785,-0.598 14.621,4.722 15.27,11.882" /></g><g
         transform="matrix(1,0,0,-1,0,411.01935)"
         id="g146"><path
           id="path148"
           style="fill:none;stroke:#000000;stroke-width:1.01368403;stroke-linecap:butt;stroke-linejoin:miter;stroke-miterlimit:4;stroke-dasharray:none;stroke-opacity:1"
           d="M 6.309,142.223 H 25.945 L 15.453,124.867 6.266,142.355" /></g><text
         id="text152"
         style="font-variant:normal;font-weight:normal;font-size:29.99999809px;font-family:Verdana;-inkscape-font-specification:Verdana;writing-mode:lr-tb;fill:#000000;fill-opacity:1;fill-rule:nonzero;stroke:none"
         transform="matrix(1,0,0,-1,37.795606,268.71676)"><tspan
           id="tspan150"
           y="0"
           x="0 18.09 37.049999 66.209999">Pump</tspan></text>
<g
         transform="matrix(1,0,0,-1,0,411.01935)"
         id="g154"><path
           id="path156"
           style="fill:none;stroke:#000000;stroke-width:0.73591602;stroke-linecap:butt;stroke-linejoin:miter;stroke-miterlimit:4;stroke-dasharray:none;stroke-opacity:1"
           d="M 327.281,410.652 H 567.277 V 209.391" /></g><g
         transform="matrix(1,0,0,-1,0,411.01935)"
         id="g158"><path
           id="path160"
           style="fill:none;stroke:#000000;stroke-width:0.75118101;stroke-linecap:butt;stroke-linejoin:miter;stroke-miterlimit:4;stroke-dasharray:none;stroke-opacity:1"
           d="m 13.555,165.441 v 42.047" /></g><g
         transform="matrix(0,-1,-1,0,0,411.01935)"
         id="g162"><path
           id="path164"
           style="fill:#000000;fill-opacity:1;fill-rule:evenodd;stroke:#000000;stroke-width:0.80125999;stroke-linecap:butt;stroke-linejoin:miter;stroke-miterlimit:4;stroke-dasharray:none;stroke-opacity:1"
           d="m 172.953,-13.555 3.004,-3.004 -10.516,3.004 10.516,3.004 z" /></g><text
         id="text168"
         style="font-variant:normal;font-weight:normal;font-size:29.99999809px;font-family:Verdana;-inkscape-font-specification:Verdana;writing-mode:lr-tb;fill:#000000;fill-opacity:1;fill-rule:nonzero;stroke:none"
         transform="matrix(1,0,0,-1,35.757377,214.18223)"><tspan
           id="tspan166"
           y="0"
           x="0 17.219999 25.349998 43.529999 68.07 78.599998 97.289993 105.42 118.2 136.05 151.64999 163.47 171.68999 189.87">Flow direction</tspan></text>
<g
         transform="matrix(1,0,0,-1,0,411.01935)"
         id="g170"><path
           id="path172"
           style="fill:none;stroke:#000000;stroke-width:0.65193099;stroke-linecap:butt;stroke-linejoin:miter;stroke-miterlimit:4;stroke-dasharray:none;stroke-opacity:1"
           d="m 8.68,232.633 10.601,21.801" /></g><text
         id="text176"
         style="font-variant:normal;font-weight:normal;font-size:29.99999809px;font-family:Verdana;-inkscape-font-specification:Verdana;writing-mode:lr-tb;fill:#000000;fill-opacity:1;fill-rule:nonzero;stroke:none"
         transform="matrix(1,0,0,-1,33.039234,156.61417)"><tspan
           id="tspan174"
           y="0"
           x="0 20.549999 38.549999 46.769997 64.769997 83.729996 99.329994 107.46 126.42 145.11 155.64 172.76999 190.76999 198.98999 216.42">Balancing valve</tspan></text>
</g></g></svg>